<?xml version="1.0" standalone="no"?>
<!DOCTYPE svg PUBLIC "-//W3C//DTD SVG 20010904//EN"
 "http://www.w3.org/TR/2001/REC-SVG-20010904/DTD/svg10.dtd">
<svg version="1.0" xmlns="http://www.w3.org/2000/svg"
 width="2000.000000pt" height="2000.000000pt" viewBox="0 0 2000.000000 2000.000000"
 preserveAspectRatio="xMidYMid meet">

<g transform="translate(0.000000,2000.000000) scale(0.100000,-0.100000)"
fill="#000000" stroke="none">
<path d="M9510 15614 c-36 -7 -108 -34 -160 -60 l-95 -46 -1421 -1422 -1422
-1421 -46 -95 c-60 -122 -80 -215 -73 -341 13 -245 153 -457 372 -565 161 -78
328 -93 491 -43 158 48 132 25 1011 902 l813 811 2 -2614 3 -2615 27 -80 c37
-107 90 -194 166 -271 263 -266 686 -267 951 -2 105 105 167 228 190 376 8 50
11 825 11 2634 l0 2562 803 -800 c868 -865 849 -848 1010 -899 315 -100 656
43 801 335 102 207 102 402 0 610 l-46 95 -1422 1421 -1421 1422 -95 46 c-150
73 -298 93 -450 60z"/>
<path d="M4805 8885 c-38 -8 -113 -35 -165 -61 -132 -66 -228 -162 -294 -294
-81 -166 -77 -59 -74 -1683 l3 -1442 27 -76 c77 -217 234 -370 458 -446 53
-17 217 -18 4855 -21 5381 -3 4885 -10 5055 74 182 90 318 269 355 467 22 118
22 2836 0 2954 -37 198 -175 378 -357 467 -149 73 -284 91 -436 60 -203 -42
-376 -175 -467 -359 -74 -149 -69 -70 -73 -1252 l-3 -1063 -4034 0 -4035 0 0
1018 c0 611 -4 1044 -10 1085 -48 329 -311 569 -640 583 -59 2 -122 -2 -165
-11z"/>
</g>
</svg>
